<svg width="16" height="16" xmlns="http://www.w3.org/2000/svg" clip-rule="evenodd" fill-rule="evenodd"
    stroke-linejoin="round" stroke-miterlimit="2">
    <path fill="none" d="M0 0h16v16H0z" />
    <path
        d="M6.578 14V5.398h2.788c1.056 0 1.745.043 2.066.13.493.128.906.41 1.238.841.333.433.5.99.5 1.675 0 .529-.097.973-.289 1.332a2.35 2.35 0 01-.73.848 2.518 2.518 0 01-.901.408c-.415.082-1.016.123-1.802.123H8.315V14zm1.737-7.147v2.441h.951c.685 0 1.143-.045 1.373-.135.231-.09.412-.23.543-.422.131-.192.197-.415.197-.669 0-.313-.092-.571-.276-.775a1.201 1.201 0 00-.698-.38c-.208-.04-.624-.06-1.25-.06z"
        fill="#8dc149" fill-rule="nonzero" />
    <path
        d="M9.478 4.564c-.093-.256-.093-.528.067-.703.625-.686.385-.931.168-1.524-.021-.058.66.457.992.784.128.126.232.244.316.355.062-.15.134-.341.228-.604.517-1.446 2.454-2.1 2.143-1.8-.267.257-.458.382-.552.754-.116.458-.314 1.356.137 1.835.17-.166.427-.339.815-.504.442-.189 1.288-.427 1.245-.38-.444.485-.768.63-.463 1.514.101.293-.113.641-.411.865.13.289.212.579.221.83l.032.019c.794.495 1.008.211 1.579-.113.056-.032-.365.74-.648 1.129-.59.811-1.053.886-1.345.876-.025-.827-.26-1.503-.67-2.036-.453-.589-1.018-.965-1.688-1.14-.345-.092-1.067-.153-2.166-.157z"
        fill="#8dc149" />
</svg>
